# Apple ModelIO OBJ File: Table_01
mtllib Table_01.mtl
g 
v -206.061 2268.41 29.8969
v -206.061 2268.41 16.2248
v 206.061 2268.41 16.2248
v 206.061 2268.41 29.8969
v -206.061 2484 16.2248
v -206.061 2484 29.8969
v 206.061 2484 29.8969
v 206.061 2484 16.2248
v 217.303 2279.65 29.8969
v 217.303 2279.65 16.2248
v 217.303 2472.76 16.2248
v 217.303 2472.76 29.8969
v -217.303 2472.76 29.8969
v -217.303 2472.76 16.2248
v -217.303 2279.65 16.2248
v -217.303 2279.65 29.8969
v -202.829 2466.33 16.2248
v -202.829 2286.08 16.2248
v -217.303 2472.76 -150.56
v -206.061 2484 -150.56
v -192.336 2476.82 -150.56
v -202.829 2466.33 -150.56
v 192.336 2476.82 16.2248
v -192.336 2476.82 16.2248
v 206.061 2484 -150.56
v 217.303 2472.76 -150.56
v 202.829 2466.33 -150.56
v 192.336 2476.82 -150.56
v 202.829 2286.08 16.2248
v 202.829 2466.33 16.2248
v 217.303 2279.65 -150.56
v 206.061 2268.41 -150.56
v 192.336 2275.59 -150.56
v 202.829 2286.08 -150.56
v -192.336 2275.59 16.2248
v 192.336 2275.59 16.2248
v -206.061 2268.41 -150.56
v -217.303 2279.65 -150.56
v -202.829 2286.08 -150.56
v -192.336 2275.59 -150.56
v 0 2376.2 16.2248
v 0 2376.2 29.8969
vn 0 -1 0
vn 0 1 0
vn 1 0 0
vn -1 0 0
vn -0.707108 -0.707106 0
vn 0.707108 -0.707106 0
vn -0.707108 0.707106 0
vn 0.707108 0.707106 0
vn -0 0 -1
vn -1e-06 0 -1
vn 1e-06 0 -1
vn 0.463543 0.886074 0
vn 0.707105 -0.707109 0
vn -0.406059 -0.913847 0
vn 0.406059 -0.913847 0
vn -0.707105 -0.707109 0
vn -0.463543 0.886074 0
vn -0.463543 -0.886074 0
vn -0.707105 0.707109 0
vn 0.406059 0.913847 0
vn -0.406059 0.913847 0
vn 0.707105 0.707109 0
vn 0.463543 -0.886074 0
vn 0 0 1
vt 0.381467 0.75
vt 0.381467 1
vt 0.618533 1
vt 0.618533 0.75
vt 0.381467 0.25
vt 0.381467 0.5
vt 0.618533 0.5
vt 0.618533 0.25
vt 0.638035 0.75
vt 0.638035 1
vt 0.861965 1
vt 0.861965 0.75
vt 0.138035 0.75
vt 0.138036 1
vt 0.361965 1
vt 0.361965 0.75
vt 0.375 0.513036
vt 0.375 0.236965
vt 0.625 0.513036
vt 0.625 0.236964
vt 0.375 0.013036
vt 0.4375 0.180982
vt 0.4375 0.069018
vt 0.440733 0.1875
vt 0.559267 0.1875
vt 0.5625 0.180982
vt 0.625 0.013035
vt 0.5625 0.069018
vt 0.618533 0
vt 0.559267 0.0625
vt 0.381467 0
vt 0.440733 0.0625
vt 0.5 0.125
vt 0.375 0.736965
vt 0.5 0.625
vt 0.625 0.736964
usemtl material_1
f 1/1/1 2/2/1 3/3/1 4/4/1 
f 5/5/2 6/6/2 7/7/2 8/8/2 
f 9/9/3 10/10/3 11/11/3 12/12/3 
f 13/13/4 14/14/4 15/15/4 16/16/4 
f 15/15/5 2/2/5 1/1/5 16/16/5 
f 3/3/6 10/10/6 9/9/6 4/4/6 
f 13/17/7 6/6/7 5/5/7 14/18/7 
f 7/7/8 12/19/8 11/20/8 8/8/8 
f 15/21/9 14/18/9 17/22/9 18/23/9 
f 19/18/10 20/5/10 21/24/10 22/22/10 
f 5/5/9 8/8/9 23/25/9 24/24/9 
f 25/8/11 26/20/11 27/26/11 28/25/11 
f 11/20/9 10/27/9 29/28/9 30/26/9 
f 31/27/11 32/29/11 33/30/11 34/28/11 
f 3/29/9 2/31/9 35/32/9 36/30/9 
f 37/31/10 38/21/10 39/23/10 40/32/10 
f 18/23/9 17/22/9 41/33/9 
f 17/22/9 24/24/9 41/33/9 
f 24/24/9 23/25/9 41/33/9 
f 23/25/9 30/26/9 41/33/9 
f 30/26/9 29/28/9 41/33/9 
f 29/28/9 36/30/9 41/33/9 
f 36/30/9 35/32/9 41/33/9 
f 35/32/9 18/23/9 41/33/9 
f 14/18/7 5/5/7 20/5/7 19/18/7 
f 5/5/12 24/24/12 21/24/12 20/5/12 
f 24/24/13 17/22/13 22/22/13 21/24/13 
f 17/22/14 14/18/14 19/18/14 22/22/14 
f 8/8/8 11/20/8 26/20/8 25/8/8 
f 11/20/15 30/26/15 27/26/15 26/20/15 
f 30/26/16 23/25/16 28/25/16 27/26/16 
f 23/25/17 8/8/17 25/8/17 28/25/17 
f 10/27/6 3/29/6 32/29/6 31/27/6 
f 3/29/18 36/30/18 33/30/18 32/29/18 
f 36/30/19 29/28/19 34/28/19 33/30/19 
f 29/28/20 10/27/20 31/27/20 34/28/20 
f 2/31/5 15/21/5 38/21/5 37/31/5 
f 15/21/21 18/23/21 39/23/21 38/21/21 
f 18/23/22 35/32/22 40/32/22 39/23/22 
f 35/32/23 2/31/23 37/31/23 40/32/23 
f 16/34/24 1/1/24 42/35/24 
f 1/1/24 4/4/24 42/35/24 
f 4/4/24 9/36/24 42/35/24 
f 9/36/24 12/19/24 42/35/24 
f 12/19/24 7/7/24 42/35/24 
f 7/7/24 6/6/24 42/35/24 
f 6/6/24 13/17/24 42/35/24 
f 13/17/24 16/34/24 42/35/24 
s off
